<?xml version="1.0" standalone="no"?>
<!DOCTYPE svg PUBLIC "-//W3C//DTD SVG 20010904//EN"
 "http://www.w3.org/TR/2001/REC-SVG-20010904/DTD/svg10.dtd">
<svg version="1.0" xmlns="http://www.w3.org/2000/svg"
 width="1024.000000pt" height="1024.000000pt" viewBox="0 0 1024.000000 1024.000000"
 preserveAspectRatio="xMidYMid meet">

<g transform="translate(0.000000,1024.000000) scale(0.100000,-0.100000)"
fill="#000000" stroke="none">
<path d="M0 5120 l0 -5120 5120 0 5120 0 0 5120 0 5120 -5120 0 -5120 0 0
-5120z m3012 4045 c318 -55 566 -235 736 -532 82 -143 91 -123 -106 -241 -167
-101 -192 -113 -192 -91 0 20 -86 132 -139 182 -62 58 -187 120 -288 143 -99
22 -261 15 -354 -15 -37 -11 -100 -43 -142 -70 -78 -51 -167 -130 -167 -148 0
-6 30 -40 66 -74 36 -35 79 -81 95 -103 27 -36 27 -40 14 -66 -35 -68 -91 -54
-208 49 -32 28 -62 51 -67 51 -15 0 -47 -71 -76 -167 -23 -76 -27 -106 -27
-223 0 -124 2 -142 29 -221 52 -148 159 -283 286 -359 32 -19 58 -39 58 -43 0
-4 -13 -33 -29 -65 -16 -31 -46 -102 -66 -157 -20 -55 -40 -103 -44 -107 -11
-12 -201 69 -300 129 -298 180 -473 514 -473 903 -1 394 186 750 527 1005 69
51 242 143 330 174 161 58 369 76 537 46z m4673 -19 c171 -44 363 -148 515
-279 202 -174 332 -392 402 -672 32 -130 32 -391 0 -518 -49 -197 -132 -353
-254 -483 -109 -115 -276 -220 -437 -275 -65 -23 -71 -23 -71 -5 0 8 -25 79
-56 158 -31 79 -58 151 -61 160 -4 12 7 23 39 39 70 35 218 192 257 272 90
185 101 371 35 576 -26 83 -62 150 -72 135 -9 -12 -121 -106 -152 -127 -33
-23 -72 -21 -104 4 -44 35 -35 59 65 161 50 51 95 92 100 90 22 -6 -30 55 -89
104 -171 140 -377 187 -593 133 -146 -37 -268 -116 -344 -221 -24 -35 -53 -74
-63 -87 l-19 -25 -134 83 c-200 124 -209 130 -209 141 0 6 14 39 31 73 113
224 296 407 504 503 150 69 284 94 475 89 104 -2 158 -9 235 -29z m-2285 -207
c248 -22 502 -78 718 -156 l122 -45 0 -58 c0 -32 -3 -71 -6 -88 l-6 -30 -62
25 c-449 177 -1025 233 -1521 147 -140 -25 -317 -71 -460 -121 -194 -67 -175
-71 -175 30 0 99 -9 90 122 138 179 66 502 137 715 158 128 12 420 13 553 0z
m70 -405 c63 -8 134 -20 158 -26 l43 -11 -3 -221 c-3 -249 -10 -277 -83 -351
-64 -63 -102 -75 -247 -75 l-128 0 0 356 0 355 73 -6 c39 -4 124 -13 187 -21z
m-430 -254 l0 -270 -330 0 c-308 0 -330 1 -330 18 -1 28 -35 96 -68 134 -21
23 -53 43 -93 58 -43 15 -75 36 -105 67 -24 25 -44 48 -44 53 0 26 482 171
495 149 4 -5 5 -65 3 -135 -3 -122 -2 -126 21 -145 34 -28 85 -25 110 7 19 24
21 40 21 169 l0 143 83 10 c45 5 117 10 160 11 l77 1 0 -270z m965 135 c302
-101 556 -231 793 -406 94 -71 212 -175 212 -189 0 -14 -346 -300 -457 -378
l-32 -23 -20 39 c-27 53 -100 126 -152 153 -25 12 -70 24 -106 27 l-63 5 0 57
c0 43 6 66 23 91 37 56 76 69 204 69 110 0 113 1 129 26 25 37 22 83 -5 106
-20 15 -42 18 -150 18 -118 0 -130 -2 -186 -28 -106 -51 -165 -142 -173 -268
l-4 -72 -122 -4 c-110 -3 -127 -7 -188 -35 -139 -65 -202 -162 -212 -326 -6
-106 1 -140 35 -158 25 -13 92 2 106 24 4 6 10 57 13 113 5 92 8 104 34 138
16 22 50 48 80 62 49 23 60 24 269 24 236 0 248 -2 298 -57 24 -25 59 -83 59
-97 0 -3 -78 -56 -172 -119 -269 -179 -660 -397 -935 -523 l-73 -33 0 520 0
519 118 0 c68 0 139 6 170 14 118 32 223 120 280 235 l37 75 3 228 4 228 26
-6 c15 -3 86 -25 157 -49z m-2080 -154 c13 -41 102 -119 177 -154 41 -20 87
-50 102 -67 l26 -32 0 -496 c0 -308 -4 -511 -10 -534 -6 -20 -24 -48 -41 -62
-30 -26 -33 -26 -197 -26 -148 0 -171 2 -199 20 -65 39 -68 53 -71 376 l-4
291 31 48 c23 36 31 61 31 93 0 157 -200 222 -286 93 -23 -36 -26 -48 -22
-101 4 -52 9 -65 38 -95 19 -19 40 -35 46 -35 10 0 13 -72 16 -312 l3 -313 28
-57 c29 -58 80 -109 147 -144 50 -27 352 -34 433 -10 71 21 146 87 178 158 24
53 24 53 27 501 l3 447 99 0 100 0 0 -74 c0 -69 2 -76 26 -95 34 -27 64 -27
98 0 24 19 26 26 26 95 l0 74 155 0 155 0 0 -639 0 -638 -57 -26 c-89 -39
-313 -128 -363 -143 -42 -13 -47 -12 -97 12 -29 15 -53 32 -53 38 0 23 -59 82
-111 111 l-54 30 -455 5 -455 5 -5 210 c-5 228 -10 249 -69 324 -32 40 -106
85 -161 96 -19 4 -111 10 -203 14 l-168 6 66 110 c175 289 396 516 700 716
107 71 332 198 352 199 6 0 14 -8 18 -19z m-271 -523 c8 -22 6 -32 -9 -48 -22
-24 -42 -25 -67 -3 -23 20 -23 41 -1 65 25 27 65 20 77 -14z m3671 -283 c78
-119 119 -194 111 -202 -2 -3 -49 -9 -103 -13 -143 -12 -184 -28 -266 -100
-50 -44 -91 -106 -108 -162 -6 -18 -10 -147 -10 -291 1 -257 1 -259 27 -316
32 -73 101 -142 179 -178 60 -28 62 -28 315 -33 l255 -5 12 -90 c7 -49 16
-191 19 -315 15 -498 -54 -893 -214 -1232 -54 -115 -116 -218 -132 -218 -7 0
-10 140 -10 410 l0 411 -25 24 c-13 14 -36 25 -50 25 -14 0 -37 -11 -50 -25
-24 -24 -25 -28 -25 -183 0 -87 -3 -282 -7 -432 l-6 -274 -76 -76 c-42 -42
-103 -95 -137 -118 l-61 -41 -7 76 c-3 42 -6 134 -6 206 0 128 0 129 26 150
32 24 63 90 64 131 0 44 -38 115 -74 137 -49 30 -88 33 -138 11 -101 -44 -126
-173 -52 -261 l24 -29 -2 -248 -3 -249 -104 -52 c-57 -29 -112 -53 -123 -53
-17 0 -18 21 -18 528 l0 528 58 18 c186 59 338 187 426 361 183 361 39 804
-319 981 -117 58 -210 77 -340 71 -379 -18 -674 -325 -674 -702 -1 -122 20
-213 73 -320 108 -216 293 -357 532 -406 54 -11 100 -21 101 -23 1 -1 3 -175
3 -386 1 -322 -1 -398 -15 -465 -51 -250 -229 -431 -470 -479 -468 -93 -1336
-83 -1686 20 -159 47 -301 192 -364 371 -38 110 -45 201 -45 584 l0 359 24 0
c49 0 215 49 287 85 357 179 539 535 513 1001 l-6 122 23 7 c13 4 97 39 186
76 90 38 167 69 173 69 7 0 10 -139 10 -414 l0 -414 -74 -16 c-77 -18 -157
-61 -175 -95 -18 -33 -14 -89 8 -101 30 -15 54 -12 114 15 121 56 317 56 427
0 27 -14 58 -25 69 -25 29 0 64 49 56 80 -15 59 -110 120 -208 135 l-47 7 0
457 0 456 197 95 c659 318 1245 694 1717 1102 107 93 94 97 201 -67z m-4181
-379 c18 -8 46 -31 62 -52 l29 -37 3 -194 3 -193 -338 2 -338 3 4 25 c1 14 8
41 15 60 l11 35 167 3 c167 2 167 3 187 29 27 33 27 77 1 103 -18 18 -33 20
-165 20 -80 0 -145 1 -145 3 0 2 29 78 71 185 8 22 11 22 204 22 145 0 204 -4
229 -14z m4413 -71 c53 -132 59 -125 -116 -125 l-150 0 -21 -27 c-26 -33 -21
-79 11 -105 18 -16 44 -18 189 -18 152 0 169 -2 174 -17 9 -29 34 -202 41
-278 3 -38 8 -80 11 -92 l4 -23 -222 0 c-194 0 -228 3 -263 19 -52 23 -102 81
-112 128 -4 21 -8 133 -8 248 0 198 1 212 22 252 13 23 39 54 58 69 59 45 99
54 230 51 l120 -2 32 -80z m-5714 -113 c87 -58 98 -174 23 -240 -47 -41 -102
-49 -159 -24 -57 25 -79 59 -85 128 -4 45 -1 60 19 89 13 19 38 41 54 50 42
20 114 19 148 -3z m6699 2 c123 -59 101 -241 -32 -275 -40 -11 -51 -9 -92 9
-30 13 -55 33 -68 54 -26 43 -27 122 -1 164 36 58 125 81 193 48z m-6197 -233
c36 -17 65 -33 65 -38 0 -4 -14 -61 -30 -126 -73 -294 -100 -519 -100 -857 0
-272 15 -446 55 -640 48 -237 100 -402 179 -572 l45 -97 -67 -22 c-37 -12 -82
-30 -99 -41 l-33 -20 0 -224 c0 -243 11 -327 56 -439 28 -70 83 -162 131 -222
19 -24 31 -48 27 -54 -4 -7 -30 -44 -58 -83 -140 -196 -183 -410 -110 -546 25
-47 49 -70 174 -164 178 -133 442 -325 655 -476 198 -141 593 -434 739 -549
195 -154 431 -347 446 -366 13 -16 10 -21 -35 -62 -96 -85 -84 -85 -172 -6
-103 92 -240 205 -402 332 -211 165 -359 275 -941 691 -340 243 -525 385 -564
433 -103 125 -132 328 -74 515 19 62 85 202 124 263 17 26 17 28 -20 83 -52
78 -83 152 -113 270 -24 94 -26 121 -30 385 -4 241 -3 286 9 295 8 6 40 34 71
63 l57 51 -31 74 c-40 97 -91 266 -123 408 -91 409 -93 972 -5 1415 26 130 90
355 101 355 5 0 38 -13 73 -29z m5653 -33 c44 -129 91 -345 119 -548 22 -160
25 -681 5 -840 -31 -246 -93 -508 -167 -705 l-37 -99 71 -66 72 -65 -1 -207
c0 -243 -13 -381 -47 -497 -25 -90 -79 -205 -117 -254 l-24 -30 44 -73 c93
-153 128 -270 127 -424 -1 -113 -19 -182 -68 -266 -45 -77 -155 -163 -745
-584 -544 -389 -965 -708 -1144 -866 -140 -124 -131 -119 -163 -96 -16 11 -47
40 -71 65 l-43 44 108 90 c255 210 518 411 903 688 587 422 673 485 802 582
217 165 253 215 251 358 0 120 -56 262 -160 410 l-50 69 55 76 c71 98 106 169
138 277 23 80 26 109 31 330 5 184 3 246 -6 257 -7 8 -53 29 -102 47 -101 36
-98 30 -51 124 69 138 157 423 191 625 37 213 45 314 45 580 1 346 -23 550
-99 855 -19 76 -33 140 -32 141 10 8 124 63 133 64 6 0 20 -28 32 -62z m-3719
-209 c23 -12 38 -26 34 -30 -11 -9 -276 -78 -838 -219 -264 -66 -495 -127
-513 -135 -18 -8 -42 -31 -53 -50 -12 -19 -22 -35 -23 -35 -1 0 -87 -16 -190
-35 -104 -19 -193 -35 -199 -35 -15 0 -2 214 23 395 11 83 22 155 24 160 2 7
293 10 849 9 l845 -2 41 -23z m2202 -419 c120 -23 225 -106 277 -218 36 -79
44 -227 15 -294 -24 -53 -75 -114 -114 -134 -27 -14 -28 -17 -31 -106 -3 -86
-4 -92 -31 -112 -39 -29 -61 -13 -67 50 -5 48 -5 49 -40 49 -35 0 -35 -1 -40
-50 -4 -44 -8 -51 -33 -60 -38 -13 -57 12 -57 73 l0 43 -37 -3 -38 -3 -5 -55
c-4 -47 -8 -55 -27 -58 -14 -2 -32 6 -48 22 -23 23 -25 32 -25 114 l0 90 -30
12 c-84 35 -136 147 -128 279 10 174 120 309 287 353 79 20 101 21 172 8z
m-4645 -41 c43 -21 74 -74 74 -126 0 -79 -46 -136 -120 -148 -136 -23 -225
130 -138 240 42 53 115 67 184 34z m6697 7 c45 -19 74 -54 85 -103 13 -58 5
-89 -37 -133 -48 -50 -101 -60 -165 -31 -57 25 -86 69 -86 132 0 106 106 176
203 135z m-4533 -16 c6 -12 10 -35 8 -53 l-3 -32 -169 -43 c-94 -23 -172 -45
-175 -48 -3 -3 10 -33 28 -68 34 -61 34 -64 21 -110 -17 -62 -55 -101 -117
-119 -143 -43 -273 57 -273 210 0 106 30 153 99 153 25 1 156 30 291 65 135
35 253 64 262 64 10 1 22 -8 28 -19z m-1036 -377 c66 -338 299 -587 626 -672
46 -12 86 -23 87 -25 7 -7 7 -1025 0 -1032 -4 -4 -59 18 -122 50 l-115 57 0
224 0 224 31 44 c95 135 -47 305 -191 228 -52 -27 -80 -74 -80 -133 0 -58 19
-99 60 -128 l30 -21 0 -147 c0 -81 -3 -164 -6 -184 l-7 -38 -52 38 c-85 60
-145 114 -186 166 l-39 49 0 414 c0 450 -2 466 -55 479 -34 8 -72 -3 -83 -24
-5 -9 -12 -199 -16 -421 -4 -223 -9 -407 -12 -410 -18 -18 -156 239 -209 389
-40 113 -92 322 -109 440 -18 126 -40 406 -33 424 3 8 31 16 64 20 32 4 130
22 218 40 88 18 165 34 171 35 6 0 18 -38 28 -86z m798 -200 c25 -23 27 -207
1 -235 -20 -22 -41 -23 -65 -1 -15 14 -18 32 -18 119 0 80 3 106 16 118 20 21
43 20 66 -1z m-177 -116 c10 -123 -14 -163 -72 -122 -46 32 -43 158 5 187 52
33 59 26 67 -65z m354 68 c25 -13 29 -21 35 -77 9 -77 -4 -115 -39 -124 -46
-11 -55 8 -55 117 0 109 3 113 59 84z m-2101 -85 c97 -59 95 -211 -3 -260 -66
-32 -159 -7 -195 53 -27 43 -26 121 0 165 37 60 134 81 198 42z m6719 0 c64
-38 86 -121 51 -189 -31 -61 -66 -84 -125 -85 -94 -1 -153 56 -153 149 0 58
21 94 74 126 41 25 112 25 153 -1z m-6710 -570 c67 -40 86 -151 37 -210 -47
-56 -107 -73 -171 -49 -41 15 -81 57 -89 93 -25 107 36 186 141 186 32 0 62
-7 82 -20z m6710 0 c69 -41 88 -141 39 -204 -64 -84 -163 -89 -235 -12 -18 19
-26 41 -29 79 -8 97 46 157 143 157 32 0 62 -7 82 -20z m-1627 -70 c23 -44
-34 -87 -71 -54 -25 23 -24 59 3 78 24 17 51 8 68 -24z m-3548 -37 c22 -20 23
-31 1 -55 -23 -26 -61 -23 -74 6 -23 51 31 87 73 49z m-1573 -493 c76 -22 125
-111 101 -184 -15 -45 -69 -93 -116 -102 -51 -9 -122 21 -151 65 -48 71 -20
175 57 213 40 20 61 22 109 8z m880 -49 c58 -32 192 -102 297 -154 944 -472
1914 -635 2841 -477 564 96 1166 312 1682 603 84 48 155 87 157 87 2 0 4 -64
4 -142 0 -151 -14 -238 -49 -307 -30 -57 -326 -339 -475 -450 -119 -89 -365
-256 -571 -387 -44 -27 -123 -77 -175 -111 -52 -33 -153 -96 -225 -140 -379
-233 -620 -395 -922 -620 -61 -46 -117 -83 -124 -83 -6 0 -71 43 -143 95 -72
52 -202 145 -288 207 -148 106 -358 244 -753 493 -184 116 -424 274 -658 434
-289 197 -619 479 -666 568 -31 60 -51 180 -51 311 0 72 3 132 7 132 3 0 54
-26 112 -59z m5869 32 c49 -36 66 -69 65 -124 -2 -147 -189 -202 -270 -80 -48
71 -20 174 57 214 43 22 111 18 148 -10z m-5808 -926 c53 -43 269 -297 435
-512 59 -77 111 -144 115 -148 4 -4 34 20 67 54 l59 61 45 -27 c24 -15 89 -58
144 -95 126 -84 453 -291 565 -357 118 -69 198 -121 205 -133 3 -5 -13 -35
-36 -65 -23 -31 -40 -57 -38 -59 2 -2 38 -25 79 -52 41 -26 147 -95 235 -153
237 -156 489 -314 500 -314 10 0 285 173 520 328 61 40 151 98 200 130 50 31
91 59 93 60 2 2 -17 29 -43 61 -39 47 -44 59 -33 70 7 7 123 78 258 158 811
479 1013 615 1177 788 196 207 202 213 213 202 16 -16 -55 -148 -124 -232 -30
-37 -95 -106 -145 -154 -77 -73 -91 -91 -91 -117 0 -24 6 -34 23 -40 32 -12
42 -6 147 85 108 94 185 178 246 270 42 62 42 63 57 40 31 -47 49 -173 29
-202 -27 -39 -353 -285 -762 -575 -190 -135 -523 -378 -740 -540 -217 -162
-424 -316 -460 -341 -121 -85 -519 -348 -544 -359 -29 -13 -43 -6 -251 129
-180 117 -409 283 -900 652 -231 174 -460 343 -510 376 -49 33 -148 103 -220
156 -620 452 -672 493 -681 531 -15 69 11 142 102 285 36 55 41 58 64 39z
m-914 -73 c37 -18 71 -64 80 -112 14 -69 -48 -154 -122 -168 -47 -9 -119 20
-148 59 -29 40 -30 145 -1 177 52 59 124 75 191 44z m6697 5 c103 -53 124
-176 43 -247 -68 -60 -180 -45 -226 30 -28 46 -27 126 2 163 45 58 126 82 181
54z"/>
<path d="M2780 8964 c-47 -6 -164 -32 -222 -51 -82 -25 -113 -98 -67 -157 26
-33 37 -33 140 5 68 25 105 32 192 37 100 4 109 7 127 30 28 34 26 83 -4 111
-25 23 -93 33 -166 25z"/>
<path d="M2201 8704 c-99 -91 -143 -149 -144 -189 -1 -46 35 -85 78 -85 27 0
45 15 128 104 53 58 97 111 97 119 0 19 -72 107 -87 107 -6 0 -39 -25 -72 -56z"/>
<path d="M7302 8937 c-26 -27 -29 -82 -6 -112 13 -17 30 -21 117 -25 80 -4
124 -13 205 -40 l104 -35 24 28 c51 59 41 113 -25 147 -68 34 -197 60 -302 60
-87 0 -97 -2 -117 -23z"/>
<path d="M7929 8727 c-61 -71 -61 -76 27 -169 42 -46 88 -93 101 -105 35 -33
76 -30 107 8 31 36 32 53 9 97 -24 44 -144 173 -179 194 -29 16 -29 16 -65
-25z"/>
<path d="M5380 8110 c-28 -28 -27 -84 2 -104 49 -35 108 -7 108 50 0 41 -29
74 -65 74 -14 0 -34 -9 -45 -20z"/>
<path d="M6600 7740 c-27 -27 -25 -66 5 -95 30 -30 54 -31 89 -4 30 24 34 63
10 97 -20 29 -76 30 -104 2z"/>
<path d="M3272 7504 c-28 -20 -31 -83 -4 -107 29 -26 77 -22 101 9 27 35 26
59 -4 89 -28 29 -61 32 -93 9z"/>
<path d="M4564 7446 c-92 -92 19 -241 136 -181 42 21 60 53 60 103 0 37 -6 50
-34 78 -29 29 -41 34 -81 34 -40 0 -52 -5 -81 -34z"/>
<path d="M3906 7419 c-35 -41 -34 -83 3 -120 41 -40 83 -39 123 3 25 27 29 38
24 68 -12 78 -101 107 -150 49z"/>
<path d="M4799 7092 c-28 -23 -30 -73 -4 -102 39 -43 115 -11 115 50 0 60 -64
90 -111 52z"/>
<path d="M6646 6859 c-19 -15 -26 -30 -26 -54 0 -24 7 -39 26 -54 35 -28 48
-26 85 7 27 25 31 32 24 61 -5 25 -15 36 -41 47 -41 17 -36 18 -68 -7z"/>
<path d="M6451 6634 c-12 -15 -21 -34 -21 -44 0 -31 39 -70 71 -70 58 0 89 67
53 118 -22 32 -76 30 -103 -4z"/>
<path d="M6000 6590 c-28 -28 -27 -84 2 -104 45 -32 101 -9 114 46 4 21 0 33
-20 52 -30 31 -69 33 -96 6z"/>
<path d="M5643 6364 c-20 -20 -24 -31 -19 -57 8 -39 30 -57 71 -57 40 0 65 27
65 68 0 67 -69 94 -117 46z"/>
<path d="M5437 6092 c-33 -37 -7 -122 38 -122 29 0 64 24 76 52 10 25 9 33 -8
56 -26 34 -81 42 -106 14z"/>
<path d="M7411 5851 c-39 -37 -41 -78 -5 -120 33 -40 79 -42 123 -5 42 35 43
84 2 125 -39 38 -79 38 -120 0z"/>
<path d="M4996 4969 c-113 -10 -217 -35 -258 -63 -18 -12 -46 -43 -63 -70 -27
-45 -30 -57 -30 -135 0 -76 4 -94 33 -155 44 -93 139 -187 249 -244 44 -23 88
-42 97 -42 14 0 16 -18 16 -135 0 -153 -6 -172 -67 -225 -38 -34 -169 -100
-197 -100 -9 0 -25 -9 -36 -20 -46 -46 -6 -130 63 -130 78 0 225 69 287 135
13 14 28 25 34 25 6 0 28 -18 49 -39 50 -51 148 -100 228 -113 57 -10 68 -9
92 7 32 20 44 57 31 94 -7 20 -25 31 -79 51 -103 39 -125 52 -183 113 l-52 56
0 139 0 139 58 22 c130 50 255 159 310 271 23 48 27 67 27 145 0 73 -4 98 -22
131 -46 86 -130 125 -314 144 -111 11 -141 11 -273 -1z"/>
<path d="M5815 4235 c-31 -30 -34 -93 -7 -118 30 -27 87 -22 111 9 21 27 27
70 13 90 -13 18 -56 44 -75 44 -10 0 -29 -11 -42 -25z"/>
<path d="M4330 4230 c-28 -28 -26 -81 3 -108 49 -46 127 -12 127 56 0 43 -30
72 -75 72 -22 0 -43 -8 -55 -20z"/>
<path d="M7286 6588 c-53 -75 47 -153 103 -82 12 15 21 35 21 45 0 54 -93 81
-124 37z"/>
<path d="M1743 6809 c-34 -12 -41 -58 -13 -81 29 -23 52 -23 75 2 36 40 -10
99 -62 79z"/>
<path d="M8437 6792 c-24 -26 -21 -49 8 -68 47 -31 101 17 75 66 -14 26 -61
27 -83 2z"/>
<path d="M2850 6297 c-35 -18 -48 -61 -29 -95 12 -21 23 -28 56 -30 33 -2 44
1 57 20 23 32 20 65 -9 93 -27 28 -39 30 -75 12z"/>
<path d="M6180 5691 c-36 -35 -46 -73 -30 -110 17 -42 43 -62 89 -68 36 -5 44
-2 76 30 39 39 45 78 20 128 -29 56 -109 66 -155 20z"/>
<path d="M6518 5705 c-35 -20 -48 -44 -48 -90 0 -47 13 -71 50 -90 46 -24 78
-19 116 19 42 42 47 100 11 141 -28 33 -90 42 -129 20z"/>
<path d="M6388 5513 c-21 -24 -48 -79 -48 -97 0 -23 19 -30 46 -16 20 11 27
11 42 -3 16 -15 21 -15 37 -3 19 13 19 15 1 54 -10 23 -28 50 -41 62 -21 19
-22 19 -37 3z"/>
<path d="M1720 5861 c-5 -11 -10 -28 -10 -39 0 -49 74 -56 99 -10 14 24 14 28
-3 47 -24 27 -72 28 -86 2z"/>
<path d="M8437 5862 c-22 -24 -21 -45 1 -65 33 -30 92 -11 92 29 0 51 -60 73
-93 36z"/>
<path d="M3466 5719 c-34 -27 -37 -96 -6 -124 28 -26 85 -25 111 2 31 31 29
91 -6 120 -33 29 -64 29 -99 2z"/>
<path d="M1722 5140 c-17 -27 -15 -44 6 -63 43 -39 108 6 84 58 -15 32 -71 35
-90 5z"/>
<path d="M8434 5135 c-15 -23 -15 -27 0 -50 29 -44 96 -24 96 29 0 50 -67 65
-96 21z"/>
<path d="M1724 4575 c-30 -47 10 -94 64 -74 30 11 39 54 17 79 -25 28 -61 25
-81 -5z"/>
<path d="M8440 4580 c-11 -11 -20 -27 -20 -35 0 -18 35 -55 53 -55 24 0 57 31
57 54 0 26 -28 56 -53 56 -9 0 -26 -9 -37 -20z"/>
<path d="M1724 3956 c-15 -24 -15 -28 0 -51 33 -50 110 -14 90 43 -14 39 -66
44 -90 8z"/>
<path d="M7179 3448 c-199 -122 -248 -151 -312 -185 -38 -20 -75 -46 -83 -57
-17 -26 -9 -58 18 -75 22 -14 31 -10 173 69 166 91 345 224 345 255 0 25 -18
45 -40 45 -9 0 -55 -23 -101 -52z"/>
<path d="M3511 3166 c-21 -26 -9 -79 22 -96 24 -13 30 -13 55 0 34 20 44 77
16 97 -24 17 -79 17 -93 -1z"/>
<path d="M4370 2970 c-6 -11 -8 -24 -5 -29 10 -16 174 -121 268 -171 139 -73
320 -132 512 -166 98 -17 90 -17 109 2 23 23 20 61 -6 78 -13 8 -87 31 -166
50 -232 59 -420 127 -601 221 -78 40 -96 43 -111 15z"/>
<path d="M5873 2641 c-183 -104 -342 -182 -537 -265 -232 -99 -257 -101 -406
-26 -157 79 -248 132 -422 247 -153 101 -179 111 -192 76 -8 -21 3 -33 109
-121 115 -96 279 -203 441 -291 105 -57 143 -72 206 -82 75 -12 77 -12 155 19
117 46 266 117 378 180 152 85 425 272 425 291 0 16 -18 41 -29 41 -4 0 -61
-31 -128 -69z"/>
<path d="M8437 3962 c-22 -24 -21 -45 1 -65 47 -43 110 1 84 58 -14 31 -61 34
-85 7z"/>
<path d="M3406 2346 c-47 -46 -21 -109 44 -109 59 0 93 69 53 106 -34 30 -70
31 -97 3z"/>
<path d="M1725 2946 c-20 -31 -6 -63 31 -72 46 -12 85 51 52 84 -21 21 -66 14
-83 -12z"/>
<path d="M8434 2945 c-20 -30 -13 -51 20 -67 49 -22 101 43 64 80 -21 21 -66
14 -84 -13z"/>
</g>
</svg>
